<?xml version="1.0" encoding="UTF-8" standalone="no"?><svg viewBox="0 0 40 40" xmlns="http://www.w3.org/2000/svg" xmlns:xlink="http://www.w3.org/1999/xlink"><style>:root>svg{display:none}:root>svg:target{display:block}</style><svg fill="none" viewBox="0 0 40 40" id="burger" xmlns="http://www.w3.org/2000/svg"><rect style="fill:none;stroke:#fff;stroke-width:2.57851;stroke-miterlimit:4;stroke-dasharray:none;stroke-opacity:1" width="37.399" height="37.347" x="1.333" y="1.385" ry="5.976"/><g transform="translate(4.866 1.242)" style="fill:#fff"><rect style="fill:#fff;stroke:none;stroke-width:0;stroke-miterlimit:4;stroke-dasharray:none" width="24.72" height="4.348" x="2.838" y="16.805" ry="2.174"/><rect style="fill:#fff;stroke:none;stroke-width:0;stroke-miterlimit:4;stroke-dasharray:none" width="24.72" height="4.348" x="2.807" y="8.852" ry="2.174"/><rect style="fill:#fff;stroke:none;stroke-width:0;stroke-miterlimit:4;stroke-dasharray:none" width="24.72" height="4.348" x="2.755" y="24.795" ry="2.174"/></g></svg><svg fill="none" viewBox="0 0 40 40" id="burgerW" xmlns="http://www.w3.org/2000/svg"><rect style="fill:#fff;stroke:#fff;stroke-width:2.5;stroke-miterlimit:4;stroke-dasharray:none;stroke-opacity:1" width="36.235" height="36.235" x="1.553" y="1.605" ry="5.798"/><g transform="translate(4.504 .518)" style="fill:#fff"><rect style="fill:#fff;stroke:#dbe3de;stroke-width:0;stroke-miterlimit:4;stroke-dasharray:none" width="24.72" height="4.348" x="2.838" y="16.805" ry="2.174"/><rect style="fill:#fff;stroke:#dbe3de;stroke-width:0;stroke-miterlimit:4;stroke-dasharray:none" width="24.72" height="4.348" x="2.807" y="8.852" ry="2.174"/><rect style="fill:#fff;stroke:#dbe3de;stroke-width:0;stroke-miterlimit:4;stroke-dasharray:none" width="24.72" height="4.348" x="2.755" y="24.795" ry="2.174"/></g></svg><svg fill="none" viewBox="0 0 22 22" id="callZ" xmlns="http://www.w3.org/2000/svg"><path d="M18.343 14.098a10.49 10.49 0 0 1-3.236-.513.896.896 0 0 0-.926.22l-1.44 1.806c-2.593-1.238-5.023-3.575-6.315-6.261l1.787-1.522a.935.935 0 0 0 .22-.935 10.223 10.223 0 0 1-.513-3.235.916.916 0 0 0-.907-.908H3.84c-.495 0-1.091.22-1.091.908 0 8.515 7.086 15.592 15.593 15.592.65 0 .907-.578.907-1.082v-3.162a.916.916 0 0 0-.907-.908Z" fill="#FFBD59" style="fill:#000"/><text xml:space="preserve" style="font-style:normal;font-weight:400;font-size:10.6667px;line-height:1.25;font-family:sans-serif;fill:#000;fill-opacity:1;stroke:none" x="20.887" y="13.381"><tspan x="20.887" y="13.381">+7 (905) 947-63-00 </tspan></text></svg><svg fill="none" viewBox="0 0 22 22" id="tell" xmlns="http://www.w3.org/2000/svg"><path d="M18.343 14.098a10.49 10.49 0 0 1-3.236-.513.896.896 0 0 0-.926.22l-1.44 1.806c-2.593-1.238-5.023-3.575-6.315-6.261l1.787-1.522a.935.935 0 0 0 .22-.935 10.223 10.223 0 0 1-.513-3.235.916.916 0 0 0-.907-.908H3.84c-.495 0-1.091.22-1.091.908 0 8.515 7.086 15.592 15.593 15.592.65 0 .907-.578.907-1.082v-3.162a.916.916 0 0 0-.907-.908Z" fill="#FF6E30"/></svg><svg fill="currentColor" class="ebi ebi-x-circle-fill" viewBox="0 0 16 16" id="x-circle-fill" xmlns="http://www.w3.org/2000/svg"><path d="M16 8A8 8 0 1 1 0 8a8 8 0 0 1 16 0M5.354 4.646a.5.5 0 1 0-.708.708L7.293 8l-2.647 2.646a.5.5 0 0 0 .708.708L8 8.707l2.646 2.647a.5.5 0 0 0 .708-.708L8.707 8l2.647-2.646a.5.5 0 0 0-.708-.708L8 7.293z"/></svg></svg>