<svg xmlns="http://www.w3.org/2000/svg" width="22" height="22" fill="none"><path d="M18.343 14.098a10.49 10.49 0 0 1-3.236-.513.896.896 0 0 0-.926.22l-1.44 1.806c-2.593-1.238-5.023-3.575-6.315-6.261l1.787-1.522a.935.935 0 0 0 .22-.935 10.223 10.223 0 0 1-.513-3.235.916.916 0 0 0-.907-.908H3.84c-.495 0-1.091.22-1.091.908 0 8.515 7.086 15.592 15.593 15.592.65 0 .907-.578.907-1.082v-3.162a.916.916 0 0 0-.907-.908Z" fill="#FFBD59" style="fill:#000"/><text xml:space="preserve" style="font-style:normal;font-weight:400;font-size:10.6667px;line-height:1.25;font-family:sans-serif;fill:#000;fill-opacity:1;stroke:none" x="20.887" y="13.381"><tspan x="20.887" y="13.381">+7 (905) 947-63-00 </tspan></text></svg>